<svg width="40" height="40" viewBox="0 0 40 40" fill="none" xmlns="http://www.w3.org/2000/svg">
<path d="M35 6.66667C35 5.87 34.3683 5 33.3333 5H6.66667C5.63333 5 5 5.865 5 6.66667V33.3333C5 34.3683 5.86667 35 6.66667 35H33.3333C34.13 35 35 34.3683 35 33.3333V6.66667ZM32.5 15.8417V32.5H7.5V15.8417H32.5ZM32.5 13.3417H7.5V7.5H32.5V13.3417ZM28.75 9.175C29.44 9.175 30 9.735 30 10.425C30 11.115 29.44 11.675 28.75 11.675C28.06 11.675 27.5 11.115 27.5 10.425C27.5 9.735 28.06 9.175 28.75 9.175ZM23.75 9.175C24.44 9.175 25 9.735 25 10.425C25 11.115 24.44 11.675 23.75 11.675C23.06 11.675 22.5 11.115 22.5 10.425C22.5 9.735 23.06 9.175 23.75 9.175Z" fill="#145048"/>
</svg>
