<svg width="40" height="40" viewBox="0 0 40 40" fill="none" xmlns="http://www.w3.org/2000/svg">
<g clip-path="url(#clip0_43_10)">
<path fill-rule="evenodd" clip-rule="evenodd" d="M20 3.33333H23.3333V6.66667H26.6667V12.8367L38.3333 17.2V38.3333H40V40H0V38.3333H1.66667V20H11.6667V6.66667H15V3.33333H18.3333V0H20V3.33333ZM25 8.33333H13.3333V38.3333H15V35H23.3333V38.3333H25V8.33333ZM21.6667 36.6667H16.6667V38.3333H21.6667V36.6667ZM35 38.3333H36.6667V18.355L26.6667 14.6167V38.3333H28.3333V35H35V38.3333ZM11.6667 21.6667H3.33333V38.3333H5V35H10V38.3333H11.6667V21.6667ZM8.33333 36.6667H6.66667V38.3333H8.33333V36.6667ZM33.3333 36.6667H30V38.3333H33.3333V36.6667ZM6.66667 28.3333V31.6667H5V28.3333H6.66667ZM10 28.3333V31.6667H8.33333V28.3333H10ZM18.3333 11.6667V31.6667H16.6667V11.6667H18.3333ZM35 30V31.6667H28.3333V30H35ZM21.6667 11.6667V31.6667H20V11.6667H21.6667ZM35 26.6667V28.3333H28.3333V26.6667H35ZM6.66667 23.3333V26.6667H5V23.3333H6.66667ZM10 23.3333V26.6667H8.33333V23.3333H10ZM35 23.3333V25H28.3333V23.3333H35ZM35 20V21.6667H28.3333V20H35ZM21.6667 5H16.6667V6.66667H21.6667V5Z" fill="#145048"/>
</g>
<defs>
<clipPath id="clip0_43_10">
<rect width="40" height="40" fill="white"/>
</clipPath>
</defs>
</svg>
