<svg width="40" height="40" viewBox="0 0 40 40" fill="none" xmlns="http://www.w3.org/2000/svg">
<path d="M9.15996 2.10163L15.4433 8.38663C16.125 11.535 11.56 16.1533 8.37329 15.4566L2.08996 9.17163C1.80329 10.1466 1.66663 11.1533 1.66663 12.16C1.66663 14.83 2.67163 17.4966 4.70996 19.5366C6.96163 21.7883 9.98329 22.7983 12.9283 22.5716C14.4833 22.4516 16.015 23.02 17.1183 24.1233L29.82 36.8083C30.7816 37.7716 32.0483 38.3333 33.3133 38.3333C36.0816 38.3333 38.3916 35.9816 38.3333 33.205C38.3066 31.9766 37.7466 30.755 36.81 29.8166L24.1083 17.13C23.005 16.0283 22.4383 14.495 22.5566 12.94C22.785 9.99496 21.7716 6.97329 19.5233 4.72329C17.4816 2.68329 14.815 1.66663 12.145 1.66663C11.14 1.66663 10.1333 1.81663 9.15996 2.10163ZM34.925 33.255C34.925 34.1766 34.18 34.9216 33.2583 34.9216C32.3366 34.9216 31.5916 34.175 31.5916 33.255C31.5916 32.335 32.3366 31.5883 33.2583 31.5883C34.18 31.5883 34.925 32.3333 34.925 33.255Z" fill="#145048"/>
</svg>
