<svg width="30" height="30" viewBox="0 0 30 30" fill="none" xmlns="http://www.w3.org/2000/svg">
<path fill-rule="evenodd" clip-rule="evenodd" d="M30 10.25C30 9.8525 29.8425 9.47125 29.5613 9.18875C29.2787 8.9075 28.8975 8.75 28.5 8.75H20.25C19.8525 8.75 19.4713 8.9075 19.1887 9.18875C18.9075 9.47125 18.75 9.8525 18.75 10.25V27.25C18.75 27.6475 18.9075 28.0287 19.1887 28.3113C19.4713 28.5925 19.8525 28.75 20.25 28.75H28.5C28.8975 28.75 29.2787 28.5925 29.5613 28.3113C29.8425 28.0287 30 27.6475 30 27.25V10.25ZM16.25 28.75H6.25L9.49875 25H16.25V28.75ZM24.375 27.5C23.6838 27.5 23.125 26.94 23.125 26.25C23.125 25.56 23.6838 25 24.375 25C25.065 25 25.6238 25.56 25.6238 26.25C25.6238 26.94 25.065 27.5 24.375 27.5ZM28.75 23.75V12.47H20V23.75H28.75ZM26.25 6.25H23.75V3.75H2.5V20H16.25V22.5H0V1.25H26.25V6.25ZM25.625 11.25C25.97 11.25 26.25 10.97 26.25 10.625C26.25 10.28 25.97 10 25.625 10H23.125C22.78 10 22.5 10.28 22.5 10.625C22.5 10.97 22.78 11.25 23.125 11.25H25.625Z" fill="#145048"/>
</svg>
