<svg width="40" height="40" viewBox="0 0 40 40" fill="none" xmlns="http://www.w3.org/2000/svg">
<g clip-path="url(#clip0_43_12)">
<path d="M20 3.33333C25.755 3.33333 29.8183 7.995 29.2783 14.6333C32.1867 14.5567 36.6667 15.885 36.6667 20.8333C36.6667 24.05 34.05 26.6667 30.8333 26.6667H9.16667C5.95 26.6667 3.33333 24.05 3.33333 20.8333C3.33333 16.1717 7.465 14.445 10.7217 14.6333C10.4433 7.60333 14.4017 3.33333 20 3.33333ZM20 0C13.3233 0 7.88833 5.235 7.535 11.82C3.25167 12.5917 0 16.33 0 20.8333C0 25.895 4.105 30 9.16667 30H30.8333C35.895 30 40 25.895 40 20.8333C40 16.33 36.7483 12.5917 32.465 11.82C32.1117 5.235 26.6767 0 20 0ZM13.3333 40V36.6667H18.3333V33.3333H21.6667V36.6667H26.6667V40H13.3333ZM28.3333 36.6667V40H33.3333V36.6667H28.3333ZM11.6667 36.6667H6.66667V40H11.6667V36.6667Z" fill="#145048"/>
</g>
<defs>
<clipPath id="clip0_43_12">
<rect width="40" height="40" fill="white"/>
</clipPath>
</defs>
</svg>
